#!OML:ASF F:\VICON\USERDATA\INSTALL\rory3\rory3.ASF
:FULLY-SPECIFIED
:DEGREES
354
root 15.3323 15.7341 -12.2744 -198.434 65.1644 -197.874
lowerback 9.98889 -0.373209 -7.98475
upperback -0.376579 -1.49465 -2.46177
thorax -5.88219 -0.488038 2.11429
lowerneck -8.55909 -9.26171 -13.4801
upperneck 24.6169 -13.1491 12.7564
head 11.1435 -5.72546 5.23022
rclavicle -3.8558e-014 1.21259e-014
rhumerus -39.7902 1.41926 -87.7
rradius 27.9362
rwrist 12.5798
rhand -15.0959 15.4262
rfingers 7.12502
rthumb 11.0723 -14.2618
lclavicle -3.8558e-014 1.21259e-014
lhumerus -19.4237 -3.09505 80.455
lradius 26.2291
lwrist 1.31541
lhand -13.6774 15.0782
lfingers 7.12502
lthumb 12.4402 44.688
rfemur -27.11 -6.10138 21.0001
rtibia 35.1505
rfoot -26.1883 -28.5447
rtoes 11.4865
lfemur 3.18754 0.560675 -33.5603
ltibia 15.3656
lfoot -16.182 17.7266
ltoes -1.89655
355
root 15.4058 15.7377 -12.3251 -199.173 65.388 -198.721
lowerback 9.82044 -0.39073 -8.15834
upperback -0.38385 -1.52253 -2.58422
thorax -5.79141 -0.49924 2.08296
lowerneck -8.52047 -9.4018 -13.6455
upperneck 24.7059 -13.3926 12.9883
head 11.2417 -5.82556 5.31122
rclavicle -8.79746e-014 -1.70955e-014
rhumerus -39.8051 1.38986 -87.7712
rradius 28.0471
rwrist 12.3746
rhand -15.2285 15.3505
rfingers 7.12502
rthumb 10.9443 -14.3442
lclavicle -8.79746e-014 -1.70955e-014
lhumerus -19.3518 -3.29317 80.4267
lradius 26.4855
lwrist 1.63823
lhand -13.7961 15.3283
lfingers 7.12502
lthumb 12.3257 44.945
rfemur -27.2707 -6.33524 20.988
rtibia 34.0918
rfoot -27.7531 -29.2125
rtoes 14.1421
lfemur 4.19959 0.777319 -33.9217
ltibia 13.9816
lfoot -15.8332 17.9451
ltoes -1.76183
356
root 15.4796 15.7385 -12.3732 -199.721 65.6614 -199.361
lowerback 9.60362 -0.423538 -8.2125
upperback -0.374426 -1.54984 -2.67246
thorax -5.65717 -0.516238 2.02047
lowerneck -8.4369 -9.54662 -13.8559
upperneck 24.7478 -13.628 13.1809
head 11.3137 -5.93444 5.38573
rclavicle 3.75455e-014 6.02318e-014
rhumerus -39.7788 1.33758 -87.8485
rradius 28.1098
rwrist 12.272
rhand -15.2425 15.4985
rfingers 7.12502
rthumb 10.9309 -14.197
lclavicle 3.75455e-014 6.02318e-014
lhumerus -19.3088 -3.6099 80.4157
lradius 26.7577
lwrist 1.98576
lhand -14.2819 14.9866
lfingers 7.12502
lthumb 11.8573 44.6309
rfemur -27.4295 -6.47152 21.0683
rtibia 33.1785
rfoot -29.4363 -29.8371
rtoes 16.2682
lfemur 5.22174 1.12564 -34.144
ltibia 12.5371
lfoot -15.3629 18.1234
ltoes -1.96277
357
root 15.5561 15.739 -12.4215 -200.182 65.8735 -199.892
lowerback 9.45215 -0.462252 -8.27355
upperback -0.406201 -1.59526 -2.72223
thorax -5.60094 -0.538318 2.00583
lowerneck -8.15541 -9.68412 -13.9581
upperneck 24.5532 -13.8451 13.2523
head 11.2345 -6.05305 5.39798
rclavicle 4.2366e-015 4.07509e-014
rhumerus -39.8175 1.36494 -87.9118
rradius 28.1747
rwrist 12.0406
rhand -15.2385 15.423
rfingers 7.12502
rthumb 10.9347 -14.2722
lclavicle 4.2366e-015 4.07509e-014
lhumerus -19.3383 -3.92312 80.4799
lradius 26.9357
lwrist 2.29715
lhand -14.8329 14.4986
lfingers 7.12502
lthumb 11.3259 44.1727
rfemur -27.5665 -6.6229 21.1289
rtibia 32.3824
rfoot -31.4689 -30.2525
rtoes 19.4026
lfemur 6.25887 1.42847 -34.3315
ltibia 11.1271
lfoot -14.8998 18.2226
ltoes -2.30675
358
root 15.6329 15.7393 -12.4691 -200.677 66.0268 -200.438
lowerback 9.38593 -0.495289 -8.3737
upperback -0.463974 -1.64855 -2.77746
thorax -5.61917 -0.559547 2.00948
lowerneck -7.8183 -9.84277 -14.0511
upperneck 24.2995 -14.1145 13.401
head 11.1373 -6.19009 5.43059
rclavicle 3.09669e-014 2.94201e-014
rhumerus -39.8657 1.30981 -87.914
rradius 28.2165
rwrist 11.804
rhand -15.1644 15.2616
rfingers 7.12502
rthumb 11.0061 -14.4299
lclavicle 3.09669e-014 2.94201e-014
lhumerus -19.404 -3.9459 80.5214
lradius 27.0878
lwrist 2.36658
lhand -14.7928 14.4469
lfingers 7.12502
lthumb 11.3646 44.119
rfemur -27.686 -6.83991 21.1337
rtibia 31.7102
rfoot -33.7627 -30.4424
rtoes 23.3985
lfemur 7.32021 1.6857 -34.5448
ltibia 9.72403
lfoot -14.3709 18.3443
ltoes -2.94774
359
root 15.7114 15.7382 -12.5138 -201.078 66.2588 -200.944
lowerback 9.24722 -0.545175 -8.45342
upperback -0.539489 -1.71496 -2.79225
thorax -5.61314 -0.588706 2.04489
lowerneck -7.59675 -10.0036 -14.2391
upperneck 24.1669 -14.3717 13.5559
head 11.1169 -6.32245 5.48244
rclavicle 1.15109e-014 -2.36554e-014
rhumerus -39.9295 1.33999 -87.899
rradius 28.322
rwrist 11.7766
rhand -15.0602 15.4032
rfingers 7.12502
rthumb 11.1066 -14.2829
lclavicle 1.15109e-014 -2.36554e-014
lhumerus -19.5263 -3.89249 80.5787
lradius 27.2837
lwrist 2.53335
lhand -14.7329 14.5223
lfingers 7.12502
lthumb 11.4223 44.1911
rfemur -27.8681 -6.90986 21.1933
rtibia 31.1427
rfoot -35.6196 -30.8801
rtoes 25.849
lfemur 8.30991 1.99285 -34.6828
ltibia 8.31157
lfoot -13.861 18.4564
ltoes -3.44522
360
root 15.7908 15.7354 -12.556 -201.595 66.509 -201.552
lowerback 9.13304 -0.612834 -8.55579
upperback -0.62391 -1.81096 -2.83065
thorax -5.62764 -0.630504 2.07212
lowerneck -7.39132 -10.1307 -14.4028
upperneck 24.0971 -14.5818 13.6889
head 11.1123 -6.43092 5.53123
rclavicle -4.65715e-014 3.97569e-016
rhumerus -40.0461 1.51773 -88.0363
rradius 28.4933
rwrist 11.6365
rhand -14.854 15.4263
rfingers 7.12502
rthumb 11.3056 -14.249
lclavicle -4.65715e-014 3.97569e-016
lhumerus -19.7291 -3.88537 80.5588
lradius 27.5067
lwrist 2.75174
lhand -14.7572 14.4712
lfingers 7.12502
lthumb 11.399 44.1414
rfemur -28.0417 -6.79272 21.2057
rtibia 30.7072
rfoot -36.7635 -31.76
rtoes 26.4895
lfemur 9.37393 2.33232 -34.8225
ltibia 6.78145
lfoot -13.2624 18.5324
ltoes -4.14212
361
root 15.8713 15.7332 -12.5967 -201.846 66.7196 -201.88
lowerback 9.0042 -0.71988 -8.58734
upperback -0.70193 -1.9492 -2.8311
thorax -5.62328 -0.69633 2.10505
lowerneck -7.14882 -10.2625 -14.6751
upperneck 23.9915 -14.8007 13.8889
head 11.1051 -6.54982 5.62215
rclavicle -1.49026e-014 -4.03533e-014
rhumerus -40.1522 1.80933 -88.1991
rradius 28.5563
rwrist 11.3767
rhand -14.7149 15.1256
rfingers 7.12502
rthumb 11.4398 -14.5423
lclavicle -1.49026e-014 -4.03533e-014
lhumerus -20.0013 -3.91947 80.5796
lradius 27.7509
lwrist 2.91039
lhand -14.835 14.5403
lfingers 7.12502
lthumb 11.3239 44.2146
rfemur -28.1604 -6.4837 21.2144
rtibia 30.3934
rfoot -37.9527 -32.4444
rtoes 27.7942
lfemur 10.5372 2.59189 -34.8545
ltibia 5.04283
lfoot -12.5386 18.6383
ltoes -4.65669
362
root 15.9528 15.7286 -12.6392 -202.459 66.8306 -202.629
lowerback 8.83674 -0.832194 -8.85076
upperback -0.774827 -2.11166 -2.81542
thorax -5.58114 -0.767597 2.28488
lowerneck -6.932 -10.4314 -15.0937
upperneck 23.8382 -15.0582 14.1303
head 11.1108 -6.69733 5.74287
rclavicle -1.98505e-014 -2.08724e-014
rhumerus -40.3159 2.41355 -88.3988
rradius 28.7789
rwrist 10.7178
rhand -14.7711 14.623
rfingers 7.12502
rthumb 11.3855 -15.0479
lclavicle -1.98505e-014 -2.08724e-014
lhumerus -20.2984 -3.97183 80.7358
lradius 27.9894
lwrist 3.13944
lhand -14.9453 14.6605
lfingers 7.12502
lthumb 11.2175 44.3406
rfemur -28.3006 -6.25304 20.9635
rtibia 30.2246
rfoot -38.9487 -32.7599
rtoes 28.7649
lfemur 11.9996 2.82196 -35.1141
ltibia 2.70104
lfoot -11.5125 18.7989
ltoes -4.81558
363
root 16.0348 15.7199 -12.6822 -203.296 66.992 -203.611
lowerback 8.61235 -0.895758 -9.08372
upperback -0.81106 -2.19645 -2.88647
thorax -5.47881 -0.804841 2.3442
lowerneck -6.64411 -10.6353 -15.261
upperneck 23.528 -15.3777 14.2733
head 11.0236 -6.8679 5.77228
rclavicle 1.69479e-014 -4.17448e-015
rhumerus -40.3823 2.73856 -88.6044
rradius 28.9517
rwrist 10.2042
rhand -14.9493 14.3898
rfingers 7.12502
rthumb 11.2137 -15.2905
lclavicle 1.69479e-014 -4.17448e-015
lhumerus -20.5409 -3.88533 80.7781
lradius 28.2183
lwrist 3.19386
lhand -14.9347 14.7749
lfingers 7.12502
lthumb 11.2277 44.4545
rfemur -28.4645 -6.16277 20.658
rtibia 30.1908
rfoot -39.6946 -32.6574
rtoes 28.9538
lfemur 13.6607 3.13599 -35.4362
ltibia 3.02153e-014
lfoot -10.3657 18.9551
ltoes -4.72708
364
root 16.1174 15.7104 -12.723 -203.972 67.1556 -204.44
lowerback 8.3526 -0.963131 -9.21878
upperback -0.827379 -2.26999 -2.98962
thorax -5.34046 -0.841855 2.31263
lowerneck -6.39162 -10.8374 -15.2852
upperneck 23.2015 -15.7088 14.4114
head 10.9269 -7.03045 5.77305
rclavicle -3.09359e-015 5.76476e-015
rhumerus -40.233 2.46806 -88.5215
rradius 28.7974
rwrist 10.625
rhand -15.2481 14.488
rfingers 7.12502
rthumb 10.9255 -15.2077
lclavicle -3.09359e-015 5.76476e-015
lhumerus -20.6732 -3.37674 80.6852
lradius 28.3106
lwrist 2.91493
lhand -14.986 14.6497
lfingers 7.12502
lthumb 11.1782 44.3319
rfemur -28.5869 -5.86887 20.3646
rtibia 30.227
rfoot -40.7256 -32.4684
rtoes 29.5954
lfemur 13.8875 3.42013 -35.6762
ltibia -5.725e-014
lfoot -10.4738 18.8325
ltoes -5.23641
